<svg width="76" height="76" viewBox="0 0 76 76" fill="none" xmlns="http://www.w3.org/2000/svg">
<path d="M38 6.3335C33.8415 6.3335 29.7237 7.15258 25.8817 8.74398C22.0397 10.3354 18.5488 12.6679 15.6083 15.6084C9.66964 21.5471 6.33334 29.6016 6.33334 38.0002C6.33334 51.9968 15.4217 63.8718 27.9933 68.0835C29.5767 68.3368 30.0833 67.3552 30.0833 66.5002V61.1485C21.3117 63.0485 19.4433 56.9052 19.4433 56.9052C17.9867 53.2318 15.9283 52.2502 15.9283 52.2502C13.0467 50.2868 16.15 50.3502 16.15 50.3502C19.3167 50.5718 20.995 53.6118 20.995 53.6118C23.75 58.4252 28.405 57.0002 30.21 56.2402C30.495 54.1818 31.3183 52.7885 32.205 51.9968C25.175 51.2052 17.7967 48.4818 17.7967 36.4168C17.7967 32.9018 19 30.0835 21.0583 27.8352C20.7417 27.0435 19.6333 23.7502 21.375 19.4752C21.375 19.4752 24.035 18.6202 30.0833 22.7052C32.585 22.0085 35.3083 21.6602 38 21.6602C40.6917 21.6602 43.415 22.0085 45.9167 22.7052C51.965 18.6202 54.625 19.4752 54.625 19.4752C56.3667 23.7502 55.2583 27.0435 54.9417 27.8352C57 30.0835 58.2033 32.9018 58.2033 36.4168C58.2033 48.5135 50.7933 51.1735 43.7317 51.9652C44.8717 52.9468 45.9167 54.8785 45.9167 57.8235V66.5002C45.9167 67.3552 46.4233 68.3685 48.0383 68.0835C60.61 63.8402 69.6667 51.9968 69.6667 38.0002C69.6667 33.8416 68.8476 29.7238 67.2562 25.8819C65.6648 22.0399 63.3322 18.549 60.3917 15.6084C57.4512 12.6679 53.9603 10.3354 50.1183 8.74398C46.2763 7.15258 42.1585 6.3335 38 6.3335Z" fill="black"/>
</svg>
