<svg width="76" height="76" viewBox="0 0 76 76" fill="none" xmlns="http://www.w3.org/2000/svg">
<path d="M38 6.3335C20.52 6.3335 6.33334 20.5202 6.33334 38.0002C6.33334 55.4802 20.52 69.6668 38 69.6668C55.48 69.6668 69.6667 55.4802 69.6667 38.0002C69.6667 20.5202 55.48 6.3335 38 6.3335ZM52.6933 27.8668C52.2183 32.8702 50.16 45.0302 49.115 50.6352C48.6717 53.0102 47.785 53.8018 46.9617 53.8968C45.125 54.0552 43.7317 52.6935 41.9583 51.5218C39.1717 49.6852 37.5883 48.5452 34.8967 46.7718C31.7617 44.7135 33.7883 43.5735 35.5933 41.7368C36.0683 41.2618 44.175 33.8835 44.3333 33.2185C44.3553 33.1178 44.3524 33.0132 44.3248 32.9139C44.2972 32.8145 44.2458 32.7234 44.175 32.6485C43.985 32.4902 43.7317 32.5535 43.51 32.5852C43.225 32.6485 38.7917 35.5935 30.1467 41.4202C28.88 42.2752 27.74 42.7185 26.7267 42.6868C25.5867 42.6552 23.4333 42.0535 21.8183 41.5152C19.8233 40.8818 18.2717 40.5335 18.3983 39.4252C18.4617 38.8552 19.2533 38.2852 20.7417 37.6835C29.9883 33.6618 36.1317 31.0018 39.2033 29.7352C48.0067 26.0618 49.8117 25.4285 51.015 25.4285C51.2683 25.4285 51.87 25.4918 52.25 25.8085C52.5667 26.0618 52.6617 26.4102 52.6933 26.6635C52.6617 26.8535 52.725 27.4235 52.6933 27.8668Z" fill="black"/>
</svg>
