<svg width="76" height="76" viewBox="0 0 76 76" fill="none" xmlns="http://www.w3.org/2000/svg">
<path d="M47.3978 0H27.9703C10.218 0 6 4.22117 6 21.9355V41.3662C6 59.1122 10.1895 63.3333 27.9355 63.3333H47.3662C65.1122 63.3333 69.3333 59.1438 69.3333 41.3978V21.9703C69.3333 4.218 65.1438 0 47.3978 0ZM57.129 45.1883H52.5088C50.7608 45.1883 50.2352 43.7728 47.1002 40.6378C44.3642 38 43.2083 37.6707 42.5148 37.6707C41.5585 37.6707 41.2957 37.9335 41.2957 39.254V43.4087C41.2957 44.5328 40.9315 45.1915 37.996 45.1915C35.1476 44.998 32.3857 44.1316 29.9372 42.6635C27.4886 41.1954 25.4232 39.1673 23.9107 36.746C20.3208 32.2826 17.8244 27.0416 16.621 21.4415C16.621 20.748 16.8838 20.121 18.2043 20.121H22.8245C24.012 20.121 24.4395 20.6498 24.9018 21.869C27.1438 28.4683 30.9692 34.2063 32.5208 34.2063C33.1162 34.2063 33.3758 33.9435 33.3758 32.4583V25.6627C33.1795 22.5625 31.5328 22.2997 31.5328 21.1787C31.554 20.883 31.6895 20.6072 31.9106 20.4097C32.1317 20.2123 32.421 20.1087 32.7172 20.121H39.9752C40.9663 20.121 41.2957 20.615 41.2957 21.8025V30.9732C41.2957 31.9643 41.7232 32.2937 42.0208 32.2937C42.6162 32.2937 43.0753 31.9643 44.1647 30.875C46.5044 28.0216 48.416 24.8427 49.8393 21.4383C49.9857 21.03 50.2612 20.6805 50.6241 20.4428C50.9869 20.2051 51.4173 20.0921 51.8502 20.121H56.4703C57.8542 20.121 58.1487 20.8145 57.8542 21.8025C56.1743 25.5659 54.0957 29.1383 51.6538 32.4583C51.1567 33.2183 50.9572 33.6142 51.6538 34.504C52.113 35.1975 53.7312 36.5497 54.8205 37.8353C56.4029 39.4149 57.7174 41.2417 58.7123 43.244C59.1082 44.5297 58.4463 45.1883 57.129 45.1883Z" fill="black"/>
</svg>
