<svg width="76" height="76" viewBox="0 0 76 76" fill="none" xmlns="http://www.w3.org/2000/svg">
<path d="M60.325 15.5482C57.4214 12.6162 53.9632 10.2914 50.1521 8.70933C46.341 7.12725 42.2531 6.31951 38.1267 6.33318C20.8367 6.33318 6.745 20.4248 6.745 37.7148C6.745 43.2565 8.20167 48.6399 10.925 53.3899L6.49167 69.6665L23.1167 65.2965C27.7083 67.7982 32.87 69.1282 38.1267 69.1282C55.4167 69.1282 69.5083 55.0365 69.5083 37.7465C69.5083 29.3548 66.2467 21.4698 60.325 15.5482ZM38.1267 63.8082C33.44 63.8082 28.8483 62.5415 24.8267 60.1665L23.8767 59.5965L13.9967 62.1932L16.625 52.5665L15.9917 51.5849C13.3872 47.4272 12.0046 42.6209 12.0017 37.7148C12.0017 23.3382 23.7183 11.6215 38.095 11.6215C45.0617 11.6215 51.6167 14.3448 56.525 19.2848C58.9558 21.7037 60.8821 24.5812 62.1921 27.7504C63.5022 30.9195 64.17 34.3173 64.1567 37.7465C64.22 52.1232 52.5033 63.8082 38.1267 63.8082ZM52.44 44.3015C51.6483 43.9215 47.785 42.0215 47.0883 41.7365C46.36 41.4832 45.8533 41.3565 45.315 42.1165C44.7767 42.9082 43.2883 44.6815 42.845 45.1882C42.4017 45.7265 41.9267 45.7898 41.135 45.3782C40.3433 44.9982 37.81 44.1432 34.8333 41.4832C32.49 39.3932 30.9383 36.8282 30.4633 36.0365C30.02 35.2448 30.4 34.8332 30.8117 34.4215C31.16 34.0732 31.6033 33.5032 31.9833 33.0598C32.3633 32.6165 32.5217 32.2682 32.775 31.7615C33.0283 31.2232 32.9017 30.7798 32.7117 30.3998C32.5217 30.0198 30.9383 26.1565 30.305 24.5732C29.6717 23.0532 29.0067 23.2432 28.5317 23.2115H27.0117C26.4733 23.2115 25.65 23.4015 24.9217 24.1932C24.225 24.9848 22.1983 26.8848 22.1983 30.7482C22.1983 34.6115 25.0167 38.3482 25.3967 38.8549C25.7767 39.3932 30.9383 47.3098 38.7917 50.6982C40.66 51.5215 42.1167 51.9965 43.2567 52.3448C45.125 52.9465 46.835 52.8515 48.1967 52.6615C49.7167 52.4398 52.8517 50.7615 53.485 48.9248C54.15 47.0882 54.15 45.5365 53.9283 45.1882C53.7067 44.8398 53.2317 44.6815 52.44 44.3015Z" fill="black"/>
</svg>
