<svg xmlns="http://www.w3.org/2000/svg" version="1.1" xmlns:xlink="http://www.w3.org/1999/xlink" viewBox="0 0 200 200"><rect width="200" height="200" fill="url('#gradient')"></rect><defs><linearGradient id="gradient" gradientTransform="rotate(45 0.5 0.5)"><stop offset="0%" stop-color="#f1eee5"></stop><stop offset="100%" stop-color="#d5c3a1"></stop></linearGradient></defs><g><g fill="#1d425b" transform="matrix(5.528185812931576,0,0,5.528185812931576,9.584097718631256,139.3096573878143)" stroke="#778ca7" stroke-width="0.2"><path d="M12.71-7.60L12.71-1.76Q11.92-0.88 10.40-0.34Q8.88 0.20 7.06 0.20L7.06 0.20Q4.27 0.20 2.60-1.51Q0.93-3.22 0.81-6.27L0.81-6.27L0.80-7.50Q0.80-9.60 1.54-11.17Q2.29-12.73 3.67-13.58Q5.05-14.42 6.87-14.42L6.87-14.42Q9.52-14.42 10.99-13.21Q12.46-11.99 12.71-9.58L12.71-9.58L9.40-9.58Q9.23-10.77 8.64-11.28Q8.06-11.79 6.98-11.79L6.98-11.79Q5.69-11.79 4.99-10.69Q4.29-9.60 4.28-7.57L4.28-7.57L4.28-6.71Q4.28-4.58 5.00-3.51Q5.73-2.44 7.29-2.44L7.29-2.44Q8.63-2.44 9.29-3.04L9.29-3.04L9.29-5.24L6.90-5.24L6.90-7.60L12.71-7.60ZM16.59-3.19L16.59-3.19Q17.37-3.19 17.89-2.73Q18.41-2.27 18.41-1.54Q18.41-0.82 17.89-0.36Q17.37 0.11 16.59 0.11L16.59 0.11Q15.80 0.11 15.29-0.36Q14.78-0.83 14.78-1.54Q14.78-2.26 15.29-2.72Q15.80-3.19 16.59-3.19ZM31.91-14.22L31.91-11.57L27.65-11.57L27.65 0L24.22 0L24.22-11.57L20.03-11.57L20.03-14.22L31.91-14.22Z"></path></g></g></svg>