<svg width="100" height="100" viewBox="0 0 100 100" fill="none" xmlns="http://www.w3.org/2000/svg">
<path d="M50 0C36.7422 0 24.0156 5.27109 14.6484 14.6445C5.27166 24.0217 0.00268319 36.7389 0 50C0 63.2555 5.27344 75.982 14.6484 85.3555C24.0156 94.7289 36.7422 100 50 100C63.2578 100 75.9844 94.7289 85.3516 85.3555C94.7266 75.982 100 63.2555 100 50C100 36.7445 94.7266 24.018 85.3516 14.6445C75.9844 5.27109 63.2578 0 50 0Z" fill="url(#paint0_linear_75_321)"/>
<path d="M22.6328 49.4722C37.2109 43.1222 46.9296 38.9357 51.789 36.9128C65.6796 31.137 68.5624 30.1339 70.4453 30.0999C70.8593 30.0933 71.7812 30.1956 72.3828 30.6819C72.8828 31.0921 73.0234 31.6468 73.0937 32.0362C73.1562 32.4253 73.2421 33.312 73.1718 34.0042C72.4218 41.9105 69.164 61.0964 67.5078 69.9519C66.8125 73.6987 65.4296 74.955 64.0937 75.0776C61.1875 75.3448 58.9843 73.1589 56.1718 71.3159C51.7734 68.4308 49.289 66.6355 45.0156 63.8206C40.0781 60.5675 43.2812 58.7792 46.0937 55.8573C46.8281 55.0925 59.6249 43.4558 59.8671 42.4003C59.8984 42.2683 59.9296 41.7761 59.6328 41.5167C59.3437 41.2565 58.914 41.3456 58.6015 41.4159C58.1562 41.5159 51.1328 46.1628 37.5078 55.3558C35.5156 56.7261 33.7109 57.394 32.0859 57.3589C30.3046 57.3206 26.8671 56.3495 24.3125 55.5198C21.1875 54.5019 18.6953 53.9636 18.914 52.2347C19.0234 51.3347 20.2656 50.4136 22.6328 49.4722Z" fill="white"/>
<defs>
<linearGradient id="paint0_linear_75_321" x1="5000" y1="0" x2="5000" y2="10000" gradientUnits="userSpaceOnUse">
<stop stop-color="#2AABEE"/>
<stop offset="1" stop-color="#229ED9"/>
</linearGradient>
</defs>
</svg>
