<svg width="80" height="80" viewBox="0 0 80 80" fill="none" xmlns="http://www.w3.org/2000/svg">
<mask id="mask0_70_318" style="mask-type:luminance" maskUnits="userSpaceOnUse" x="0" y="0" width="80" height="80">
<path d="M61.25 0H18.75C8.39466 0 0 8.39466 0 18.75V61.25C0 71.6053 8.39466 80 18.75 80H61.25C71.6053 80 80 71.6053 80 61.25V18.75C80 8.39466 71.6053 0 61.25 0Z" fill="white"/>
</mask>
<g mask="url(#mask0_70_318)">
<path d="M18.75 0C8.39469 0 0 8.39469 0 18.75V61.25C0 71.6053 8.39469 80 18.75 80H52.6438C52.0878 78.3616 51.6525 75.7669 51.4075 72.8053C51.1966 70.2578 51.1266 67.4394 51.2434 64.7209C51.2119 64.3191 51.1928 64.0578 51.1928 64.0578C51.1928 64.0578 50.6072 60.1172 49.7644 56.88C49.3913 55.4431 48.9666 54.1438 48.5206 53.3906C48.2909 53.0022 48.5456 51.4059 49.1866 49.0419C49.5616 49.6891 51.1438 52.4581 51.4616 53.3506C51.8194 54.3594 51.8944 54.6484 51.8944 54.6484C51.8944 54.6484 51.0266 50.1884 49.6028 47.5859C49.9496 46.4263 50.3187 45.2733 50.7097 44.1278C51.2028 44.9925 52.3237 46.9781 52.7287 47.9191C52.7662 48.0063 52.8 48.0881 52.8247 48.1556C52.8822 48.3188 52.9306 48.4572 52.9741 48.5841C53.2025 49.2459 53.2581 49.4566 53.2581 49.4566C53.2581 49.4566 53.1734 49.0234 53.0159 48.3553C52.9494 48.0731 52.8666 47.7413 52.7744 47.3878C52.4156 46.01 51.8706 44.2062 51.1728 42.7928C52.9641 33.4822 58.7294 21.2906 64.9406 14.7091C65.4759 14.1422 66.0138 13.6119 66.5525 13.1337C70.1834 9.915 73.8625 8.8275 76.9009 11.5344C79.0991 13.4928 79.9984 16.1984 80 19.3125V18.75C80 8.39469 71.6053 0 61.25 0H18.75Z" fill="#D9D9D9"/>
<path d="M18.75 0C8.39469 0 0 8.39469 0 18.75V61.25C0 71.6053 8.39469 80 18.75 80H52.6438C52.0878 78.3616 51.6525 75.7669 51.4075 72.8053C51.1966 70.2578 51.1266 67.4394 51.2434 64.7209C51.2119 64.3191 51.1928 64.0578 51.1928 64.0578C51.1928 64.0578 50.6072 60.1172 49.7644 56.88C49.3913 55.4431 48.9666 54.1438 48.5206 53.3906C48.2909 53.0022 48.5456 51.4059 49.1866 49.0419C49.5616 49.6891 51.1438 52.4581 51.4616 53.3506C51.8194 54.3594 51.8944 54.6484 51.8944 54.6484C51.8944 54.6484 51.0266 50.1884 49.6028 47.5859C49.9496 46.4263 50.3187 45.2733 50.7097 44.1278C51.2028 44.9925 52.3237 46.9781 52.7287 47.9191C52.7662 48.0063 52.8 48.0881 52.8247 48.1556C52.8822 48.3188 52.9306 48.4572 52.9741 48.5841C53.2025 49.2459 53.2581 49.4566 53.2581 49.4566C53.2581 49.4566 53.1734 49.0234 53.0159 48.3553C52.9494 48.0731 52.8666 47.7413 52.7744 47.3878C52.4156 46.01 51.8706 44.2062 51.1728 42.7928C52.9641 33.4822 58.7294 21.2906 64.9406 14.7091C65.4759 14.1422 66.0138 13.6119 66.5525 13.1337C70.1834 9.915 73.8625 8.8275 76.9009 11.5344C79.0991 13.4928 79.9984 16.1984 80 19.3125V18.75C80 8.39469 71.6053 0 61.25 0H18.75Z" fill="url(#paint0_linear_70_318)"/>
<path d="M76.9009 11.5344C73.8625 8.82754 70.1834 9.91472 66.5525 13.1338C66.0138 13.6119 65.4759 14.1422 64.9406 14.7088C58.7294 21.291 52.9641 33.4822 51.1728 42.7928C51.8706 44.2063 52.4156 46.01 52.7744 47.3879C52.8666 47.7413 52.9494 48.0732 53.0159 48.3554C53.1734 49.0235 53.2581 49.4566 53.2581 49.4566C53.2581 49.4566 53.2025 49.246 52.9741 48.5841C52.9306 48.4572 52.8822 48.3188 52.8247 48.1557C52.7947 48.076 52.7627 47.9971 52.7287 47.9191C52.3237 46.9782 51.2028 44.9925 50.7097 44.1279C50.3187 45.2734 49.9496 46.4263 49.6028 47.586C51.0266 50.1885 51.8944 54.6485 51.8944 54.6485C51.8944 54.6485 51.8194 54.3594 51.4616 53.3507C51.1438 52.4582 49.5616 49.6891 49.1866 49.0419C48.5456 51.406 48.2909 53.0022 48.5206 53.3907C48.9666 54.1438 49.3913 55.4432 49.7644 56.88C50.6072 60.1172 51.1928 64.0579 51.1928 64.0579C51.1928 64.0579 51.2119 64.3191 51.2434 64.721C51.1266 67.4394 51.1966 70.2579 51.4075 72.8054C51.6866 76.1775 52.2122 79.0747 52.8822 80.625L53.3369 80.3772C52.3531 77.3229 51.9534 73.3197 52.1284 68.7029C52.3931 61.6463 54.0191 53.1363 57.0228 44.2666C62.0978 30.8769 69.1391 20.1341 75.5834 15.0035C69.7097 20.3022 61.76 37.4532 59.3803 43.8044C56.7159 50.9166 54.8275 57.591 53.6897 63.9854C55.6531 57.9907 62.0016 55.4138 62.0016 55.4138C62.0016 55.4138 65.1153 51.5782 68.7541 46.0982C66.5744 46.5947 62.9953 47.4447 61.7963 47.9479C60.0281 48.6888 59.5516 48.9416 59.5516 48.9416C59.5516 48.9416 65.2797 45.4572 70.1941 43.8797C76.9528 33.2469 84.3159 18.1416 76.9009 11.5344ZM8.9125 15.3125C7.95531 15.3125 7.17687 15.5922 6.58031 16.151C5.98344 16.7103 5.68094 17.4438 5.68094 18.3422C5.68094 18.8078 5.75594 19.2322 5.90406 19.6213C6.05219 20.011 6.28281 20.3722 6.5925 20.6985C6.9025 21.025 7.52281 21.4688 8.4475 22.0328C9.58187 22.716 10.3241 23.2703 10.6803 23.7035C11.0369 24.1363 11.2137 24.5897 11.2137 25.0622C11.2137 25.6953 11.0028 26.2003 10.5687 26.5803C10.1341 26.96 9.55281 27.1491 8.83187 27.1491C8.07156 27.1491 7.40937 26.885 6.84062 26.3597C6.27187 25.8341 5.985 25.1385 5.97844 24.2666H5.625V27.4313H5.97844C6.08656 27.1316 6.23594 26.9782 6.43156 26.9782C6.52531 26.9782 6.74562 27.0422 7.08906 27.1619C7.92375 27.455 8.60937 27.5963 9.14844 27.5963C10.0769 27.5963 10.8697 27.2757 11.5303 26.6232C12.1897 25.9713 12.5228 25.185 12.5228 24.2669C12.5228 23.555 12.3028 22.9216 11.8716 22.3697C11.44 21.8169 10.6009 21.1741 9.34656 20.4353C8.26781 19.796 7.56719 19.275 7.24406 18.8688C6.92031 18.4632 6.75406 18.0147 6.75406 17.5222C6.75406 16.9897 6.95219 16.5622 7.34312 16.2432C7.73437 15.9238 8.24656 15.7657 8.88781 15.7657C9.60938 15.7657 10.2106 15.9769 10.6866 16.4022C11.1619 16.8282 11.4369 17.4185 11.5178 18.1772H11.8716V15.4354H11.5425C11.5025 15.5749 11.4653 15.6646 11.4309 15.7044C11.3978 15.7444 11.3338 15.7657 11.2388 15.7657C11.1244 15.7657 10.9203 15.7182 10.6309 15.625C10.0106 15.4188 9.43875 15.3125 8.9125 15.3125ZM20.4688 15.3128C19.3022 15.3128 18.2434 15.5841 17.2866 16.1269C16.3284 16.6688 15.57 17.4207 15.01 18.3791C14.4506 19.3372 14.1725 20.355 14.1725 21.4394C14.1725 22.8963 14.6559 24.1944 15.6303 25.3319C16.6053 26.4688 17.7734 27.1772 19.1288 27.4497C19.4388 27.6091 19.8819 28.0203 20.4625 28.686C21.1166 29.4372 21.67 29.9791 22.125 30.3016C22.5705 30.6188 23.0649 30.8608 23.5888 31.0179C24.1078 31.1738 24.6691 31.2504 25.2763 31.2504C26.0109 31.2504 26.6691 31.1244 27.2484 30.8647L27.1184 30.5466C26.7735 30.6668 26.4105 30.7269 26.0453 30.7241C25.5322 30.7241 25.0141 30.5572 24.4944 30.2222C23.9756 29.8863 23.3269 29.2457 22.5528 28.3003C22.1891 27.8472 21.9381 27.5616 21.7963 27.4497C23.2791 27.1638 24.4988 26.4547 25.4497 25.3197C26.4006 24.1854 26.8762 22.8904 26.8762 21.4394C26.8762 19.7163 26.255 18.2685 25.0216 17.0878C23.7875 15.9063 22.2694 15.3128 20.4688 15.3128ZM27.6828 15.3125L27.7016 15.686C28.4778 15.686 28.9128 15.9116 29.0103 16.3653C29.0463 16.5278 29.0631 16.8272 29.0659 17.2591L29.0597 25.5154C29.0534 26.132 28.9646 26.5258 28.7931 26.6966C28.6216 26.8663 28.3319 26.9722 27.9122 27.0147L27.8934 27.3882H35.635L35.8334 25.5154H35.48C35.3791 26.0254 35.1475 26.391 34.7791 26.5985C34.4094 26.8078 33.7562 26.911 32.8125 26.911H32.0806C31.2316 26.911 30.7403 26.6078 30.6106 25.9985C30.5844 25.8696 30.5719 25.7384 30.5731 25.6069L30.6044 17.2588C30.6044 16.6432 30.6831 16.2307 30.8463 16.0285C31.0113 15.8275 31.3088 15.7147 31.7394 15.686L31.7209 15.3125H27.6828ZM20.5928 15.7657C21.9084 15.7657 22.9825 16.2766 23.8122 17.3078C24.6419 18.3391 25.0528 19.7529 25.0528 21.5432C25.053 23.239 24.6353 24.5977 23.7997 25.6194C22.9637 26.6407 21.8513 27.1494 20.4684 27.1494C19.1403 27.1494 18.0634 26.6247 17.2372 25.5703C16.4113 24.516 16.0028 23.1469 16.0028 21.4635C16.0028 19.7338 16.4163 18.3488 17.2494 17.3138C18.0822 16.28 19.1972 15.7657 20.5928 15.7657ZM38.3953 17.54C38.2066 17.54 38.0625 17.6029 37.955 17.7297C37.8447 17.856 37.8109 18.0091 37.8494 18.195C37.8866 18.375 37.9897 18.5332 38.1534 18.6663C38.3163 18.7991 38.4919 18.8682 38.6806 18.8682C38.8631 18.8682 39.0025 18.7991 39.1025 18.6663C39.2021 18.533 39.2331 18.3759 39.1956 18.195C39.1569 18.0091 39.0575 17.856 38.9041 17.7297C38.7487 17.6029 38.5778 17.54 38.3953 17.54ZM43.5003 18.8069C43.1794 20.0247 42.4841 20.6838 41.4162 20.79L41.4284 21.1388H42.6753L42.6506 25.2638C42.6525 25.9694 42.6744 26.4388 42.725 26.6779C42.8478 27.2497 43.2266 27.5407 43.86 27.5407C44.7771 27.5407 45.7385 26.9898 46.7444 25.8882L46.4406 25.6313C45.7144 26.3563 45.0722 26.7207 44.5116 26.7207C44.1669 26.7207 43.9531 26.525 43.8725 26.1394C43.8497 26.0307 43.8393 25.9198 43.8416 25.8088L43.8541 21.1388H45.7581L45.7397 20.5819H43.86V18.8069H43.5003ZM50.8631 20.3616C49.7981 20.3616 48.9316 20.8716 48.2581 21.8857C47.5878 22.9013 47.3803 24.0263 47.6441 25.2638C47.7991 25.9888 48.1078 26.5513 48.5806 26.9472C49.0525 27.3432 49.6512 27.541 50.3669 27.541C51.0334 27.541 51.9616 27.3741 52.3519 27.0388C52.7434 26.7038 53.1044 26.1607 53.4375 25.4169L53.1706 25.1416C52.6394 26.1063 51.5666 26.5922 50.7578 26.5922C49.6456 26.5922 48.9647 25.99 48.7109 24.7928C48.6768 24.6312 48.6519 24.4677 48.6363 24.3032C49.9594 24.0963 50.9619 23.7304 51.6388 23.2013C52.3147 22.6722 52.9937 22.111 52.8669 21.5182C52.7912 21.166 52.6059 20.8891 52.3209 20.6797C52.0322 20.4704 51.2822 20.3616 50.8631 20.3616ZM39.2203 20.4044L36.9253 20.9247V21.3285L37.7191 21.2307C38.1037 21.2307 38.33 21.4025 38.4016 21.7447C38.4256 21.8594 38.4406 22.02 38.445 22.2222L38.42 25.925C38.4138 26.4375 38.3559 26.7353 38.2403 26.8247C38.1234 26.9143 37.8153 26.9591 37.3159 26.9591L37.3034 27.3082H40.9447L40.9384 26.9594C40.4325 26.9594 40.1047 26.92 39.9584 26.8432C39.8147 26.7666 39.7159 26.6275 39.6731 26.4147C39.64 26.261 39.6256 25.9966 39.6234 25.6313L39.6359 20.4044H39.2203ZM50.2803 21.09C50.5019 21.09 50.7159 21.1744 50.9316 21.3407C51.1441 21.5066 51.2737 21.6913 51.3159 21.8916C51.5237 22.876 50.6391 23.5566 48.6487 23.936C48.5919 23.2182 48.7181 22.5663 49.0397 21.9772C49.3588 21.3888 49.7744 21.09 50.2803 21.09Z" fill="#003B57"/>
</g>
<defs>
<linearGradient id="paint0_linear_70_318" x1="46.1294" y1="1.63719" x2="46.1294" y2="75.5509" gradientUnits="userSpaceOnUse">
<stop stop-color="#97D9F6"/>
<stop offset="0.92" stop-color="#0F80CC"/>
<stop offset="1" stop-color="#0F80CC"/>
</linearGradient>
</defs>
</svg>
