<svg width="296" height="296" viewBox="0 0 296 296" fill="none" xmlns="http://www.w3.org/2000/svg">
<path d="M267.707 94.4546C267.79 90.4311 266.775 86.4611 264.772 82.9709C262.664 79.5461 259.682 76.7451 256.131 74.8566C224.166 57.2064 192.186 39.5654 160.191 21.9336C156.334 19.6109 151.908 18.402 147.406 18.4411C142.904 18.4802 138.501 19.7658 134.684 22.1552C121.964 29.3464 58.2956 64.296 39.3161 74.8289C35.7065 76.6458 32.6934 79.4592 30.6336 82.9359C28.5738 86.4126 27.5536 90.4068 27.6939 94.4454V200.965C27.6006 204.898 28.5565 208.786 30.4633 212.227C32.5819 215.752 35.6284 218.626 39.2699 220.535C58.2495 231.068 121.927 266.018 134.648 273.209C138.462 275.601 142.864 276.89 147.367 276.932C151.869 276.975 156.295 275.769 160.154 273.449C192.094 255.78 224.053 238.14 256.03 220.526C259.672 218.614 262.721 215.741 264.846 212.218C266.752 208.777 267.708 204.889 267.615 200.956V94.4546" fill="#4E994A"/>
<path d="M263.544 213.898C264.029 213.365 264.482 212.804 264.901 212.218C266.808 208.776 267.764 204.889 267.67 200.956V94.4544C267.753 90.4309 266.738 86.4609 264.735 82.9707C264.403 82.426 263.913 82.0014 263.535 81.4937L147.701 147.7L263.544 213.898Z" fill="#358230"/>
<path d="M263.544 213.898L147.7 147.7L31.8569 213.898C33.8074 216.654 36.3618 218.927 39.325 220.544C58.3046 231.077 121.982 266.027 134.703 273.218C138.517 275.61 142.92 276.899 147.422 276.942C151.924 276.984 156.35 275.778 160.209 273.458C192.149 255.79 224.108 238.149 256.085 220.535C259.044 218.919 261.595 216.649 263.544 213.898Z" fill="#1A7515"/>
<path d="M180.933 166.348C176.821 173.661 170.406 179.409 162.688 182.698C154.97 185.988 146.381 186.633 138.258 184.535C130.135 182.436 122.933 177.711 117.774 171.095C112.615 164.479 109.788 156.343 109.732 147.953C109.677 139.563 112.397 131.391 117.468 124.707C122.539 118.023 129.678 113.204 137.772 110.998C145.867 108.792 154.464 109.324 162.225 112.511C169.986 115.698 176.475 121.361 180.684 128.619L214.055 109.483C205.584 94.9464 192.569 83.598 177.015 77.1861C161.46 70.7741 144.229 69.6542 127.975 73.9989C111.721 78.3436 97.3467 87.9118 87.0659 101.23C76.7851 114.548 71.1683 130.876 71.0807 147.7C71.057 161.042 74.5601 174.154 81.2351 185.706C87.9878 197.377 97.6942 207.064 109.378 213.793C121.063 220.523 134.313 224.057 147.796 224.041C161.28 224.025 174.522 220.46 186.19 213.703C197.858 206.946 207.542 197.235 214.267 185.549L180.933 166.348Z" fill="white"/>
<path d="M255.43 140.971V129.543H246.134V120.256H234.696V129.543H220.775V120.256H209.338V129.543H200.033V140.971H209.319V154.938H200.033V166.357H209.319V175.644H220.757V166.357H234.687V175.644H246.125V166.357H255.411V154.938H246.18V140.971H255.43ZM234.696 154.938H220.775V140.971H234.696V154.938Z" fill="white"/>
</svg>
