<svg width="296" height="296" viewBox="0 0 296 296" fill="none" xmlns="http://www.w3.org/2000/svg">
<path d="M146.295 28.2662C136.552 28.3124 127.251 29.1409 119.063 30.5902C94.9462 34.8505 90.5705 43.7679 90.5705 60.2157V81.9346H147.558V89.1742H69.1817C52.6207 89.1742 38.1184 99.1279 33.5812 118.07C28.3471 139.776 28.1163 153.322 33.5812 175.988C37.6314 192.86 47.3058 204.879 63.8691 204.879H83.4648V178.842C83.4648 160.031 99.7372 143.44 119.065 143.44H175.988C191.833 143.44 204.48 130.392 204.48 114.482V60.218C204.48 44.7718 191.45 33.1704 175.988 30.5925C166.193 28.9632 156.036 28.2224 146.295 28.2662ZM115.477 45.7341C121.361 45.7341 126.171 50.6198 126.171 56.6294C126.171 62.6135 121.364 67.453 115.477 67.453C109.569 67.453 104.784 62.6135 104.784 56.6294C104.782 50.6198 109.569 45.7341 115.477 45.7341Z" fill="url(#paint0_linear_36_186)"/>
<path d="M211.586 89.1742V114.482C211.586 134.098 194.951 150.611 175.985 150.611H119.063C103.471 150.611 90.5703 163.957 90.5703 179.572V233.84C90.5703 249.282 103.997 258.367 119.063 262.796C137.101 268.097 154.4 269.057 175.985 262.796C190.33 258.64 204.477 250.281 204.477 233.84V212.119H147.557V204.877H232.974C249.535 204.877 255.711 193.326 261.471 175.985C267.421 158.134 267.165 140.966 261.471 118.068C257.377 101.579 249.561 89.1719 232.974 89.1719L211.586 89.1742ZM179.569 226.598C185.479 226.598 190.264 231.438 190.264 237.426C190.264 243.431 185.477 248.317 179.569 248.317C173.684 248.317 168.877 243.431 168.877 237.426C168.877 231.438 173.684 226.598 179.569 226.598Z" fill="url(#paint1_linear_36_186)"/>
<path opacity="0.444" d="M224.572 276.009C224.572 284.185 190.379 290.815 148.204 290.815C106.026 290.815 71.8333 284.185 71.8333 276.009C71.8333 267.832 106.024 261.199 148.204 261.199C190.379 261.199 224.572 267.827 224.572 276.009Z" fill="url(#paint2_radial_36_186)"/>
<defs>
<linearGradient id="paint0_linear_36_186" x1="23.8558" y1="35.0573" x2="155.295" y2="147.148" gradientUnits="userSpaceOnUse">
<stop stop-color="#5A9FD4"/>
<stop offset="1" stop-color="#306998"/>
</linearGradient>
<linearGradient id="paint1_linear_36_186" x1="204.747" y1="216.825" x2="157.611" y2="150.724" gradientUnits="userSpaceOnUse">
<stop stop-color="#FFD43B"/>
<stop offset="1" stop-color="#FFE873"/>
</linearGradient>
<radialGradient id="paint2_radial_36_186" cx="0" cy="0" r="1" gradientUnits="userSpaceOnUse" gradientTransform="translate(147.895 275.585) rotate(-90) scale(14.8123 65.1125)">
<stop stop-color="#B8B8B8" stop-opacity="0.498"/>
<stop offset="1" stop-color="#7F7F7F" stop-opacity="0"/>
</radialGradient>
</defs>
</svg>
