<svg width="296" height="296" viewBox="0 0 296 296" fill="none" xmlns="http://www.w3.org/2000/svg">
<path d="M52.3114 3.69263H243.09C272.016 3.69263 295.401 27.0778 295.401 56.004V239.397C295.401 268.323 272.016 291.709 243.09 291.709H52.3114C23.3851 291.709 0 268.323 0 239.397V56.004C0 27.0778 23.3851 3.69263 52.3114 3.69263Z" fill="#001E36"/>
<path d="M105.853 76.9265C102.16 76.9265 98.4679 76.9265 94.6531 77.0511C90.8359 77.1735 87.2657 77.1734 83.9425 77.2981C80.6192 77.4204 77.5429 77.4204 74.5889 77.5427C71.7572 77.665 69.7886 77.665 67.6954 77.665C66.8346 77.665 66.4653 78.1566 66.4653 79.0197V205.673C66.4653 206.781 66.9569 207.275 67.9423 207.275H91.8214C92.6822 207.15 93.2984 206.411 93.1737 205.551V166.041C95.5116 166.041 97.2355 166.041 98.4679 166.163C99.6979 166.285 101.667 166.285 104.621 166.285C114.715 166.285 123.946 165.178 132.314 162.101C140.316 159.147 147.209 153.978 152.132 147.084C157.055 140.192 159.517 131.453 159.517 120.867C159.517 115.329 158.534 110.037 156.687 104.867C154.731 99.6006 151.666 94.8155 147.701 90.8357C143.02 86.2885 137.386 82.8403 131.207 80.7413C124.313 78.1566 115.945 76.9265 105.853 76.9265ZM108.599 101.17C112.984 101.253 117.254 102.019 121.237 103.635C124.807 104.99 127.761 107.452 129.854 110.651C131.817 113.961 132.799 117.761 132.686 121.608C132.686 127.022 131.454 131.209 128.869 134.285C126.159 137.361 122.714 139.702 118.777 140.809C114.221 142.286 109.421 143.022 104.621 143.022H98.0963C96.6193 143.022 95.0223 142.9 93.2984 142.778V101.422C94.1592 101.297 95.8831 101.175 98.3456 101.299C100.683 101.175 103.513 101.175 106.714 101.175C107.345 101.159 107.973 101.158 108.599 101.17ZM211.828 107.454C203.088 107.454 195.826 108.807 190.042 111.761C184.75 114.223 180.195 118.16 177.118 123.083C174.411 127.639 172.932 132.683 172.932 137.978C172.827 142.332 173.8 146.645 175.764 150.532C178.066 154.672 181.262 158.245 185.12 160.993C190.534 164.697 196.41 167.676 202.597 169.856C208.627 172.193 212.689 174.04 214.66 175.639C216.628 177.241 217.614 178.84 217.614 180.564C217.614 182.779 216.259 184.873 214.29 185.733C212.075 186.841 208.752 187.457 204.074 187.457C199.151 187.457 194.226 186.841 189.548 185.611C184.177 184.411 179.027 182.377 174.287 179.581C173.917 179.334 173.548 179.211 173.179 179.458C172.81 179.703 172.687 180.195 172.687 180.564V201.98C172.565 202.966 173.179 203.827 174.042 204.318C178.033 206.183 182.255 207.508 186.597 208.258C192.135 209.365 197.672 209.857 203.333 209.857C212.195 209.857 219.582 208.505 225.613 205.92C231.151 203.704 235.952 199.89 239.397 194.965C242.624 190.123 244.299 184.413 244.198 178.595C244.319 174.201 243.347 169.844 241.368 165.918C239.028 161.732 235.705 158.286 231.643 155.702C225.701 151.97 219.339 148.954 212.689 146.715C209.719 145.486 206.803 144.131 203.949 142.653C202.35 141.792 200.873 140.685 199.765 139.33C199.027 138.345 198.535 137.239 198.535 136.131C198.535 135.024 198.904 133.794 199.518 132.808C200.381 131.578 201.734 130.715 203.333 130.346C205.673 129.732 208.258 129.36 210.718 129.483C215.396 129.483 219.949 130.099 224.505 131.084C228.691 131.945 232.628 133.3 236.321 135.271C236.812 135.515 237.429 135.515 238.536 135.271C238.729 135.128 238.885 134.942 238.992 134.728C239.099 134.514 239.154 134.278 239.153 134.038V113.976C239.153 113.482 239.028 112.991 238.906 112.499C238.659 112.008 238.167 111.514 237.676 111.392C234.281 110.004 230.724 109.053 227.09 108.56C222.036 107.824 216.935 107.456 211.828 107.454Z" fill="#31A8FF"/>
</svg>
