<svg width="80" height="80" viewBox="0 0 80 80" fill="none" xmlns="http://www.w3.org/2000/svg">
<path d="M76.125 58.1877C71.9375 60.3752 50.25 69.2501 45.625 71.6876C41 74.1251 38.4375 74.0626 34.8125 72.3126C31.1875 70.5626 8.125 61.3127 3.9375 59.3127C1.875 58.3127 0.8125 57.5001 0.8125 56.6876V48.7502C0.8125 48.7502 30.8125 42.1877 35.6875 40.5002C40.5625 38.7502 42.1875 38.6877 46.3125 40.1877C50.4375 41.6877 75.125 46.1251 79.1875 47.6251V55.4376C79.1875 56.2501 78.25 57.1252 76.125 58.1877Z" fill="#A41E11"/>
<path d="M76.1251 50.3127C71.9376 52.5002 50.2501 61.3752 45.6251 63.8127C41.0001 66.2502 38.4376 66.1877 34.8126 64.4377C31.1876 62.6877 8.12514 53.3752 3.93764 51.3752C-0.187358 49.3752 -0.312358 48.0002 3.75014 46.4377C7.81264 44.8127 30.7501 35.8127 35.6251 34.1252C40.5001 32.3752 42.1251 32.3127 46.2501 33.8127C50.3751 35.3127 71.9376 43.8752 76.0001 45.3752C80.1876 46.8752 80.3126 48.1252 76.1251 50.3127Z" fill="#D82C20"/>
<path d="M76.125 45.3127C71.9375 47.5002 50.25 56.3751 45.625 58.8126C41 61.1876 38.4375 61.1876 34.8125 59.4376C31.1875 57.6876 8.125 48.3751 3.9375 46.3751C1.875 45.3751 0.8125 44.5627 0.8125 43.7502V35.8127C0.8125 35.8127 30.8125 29.2502 35.6875 27.5627C40.5625 25.8127 42.1875 25.7502 46.3125 27.2502C50.4375 28.7502 75.125 33.1877 79.1875 34.6877V42.5002C79.1875 43.3127 78.25 44.1877 76.125 45.3127Z" fill="#A41E11"/>
<path d="M76.1252 37.3752C71.9377 39.5626 50.2502 48.4376 45.6252 50.8751C41.0002 53.2501 38.4377 53.2501 34.8127 51.5001C31.1877 49.7501 8.12522 40.4377 3.93772 38.4377C-0.249778 36.4377 -0.312278 35.0626 3.75022 33.5002C7.81272 31.8752 30.7502 22.8752 35.6252 21.1877C40.5002 19.4377 42.1252 19.3752 46.2502 20.8752C50.3752 22.3752 71.9377 30.9377 76.0002 32.4377C80.1877 33.9377 80.3127 35.1877 76.1252 37.3752Z" fill="#D82C20"/>
<path d="M76.125 31.8752C71.9375 34.0627 50.25 42.9377 45.625 45.3752C41 47.7502 38.4375 47.7502 34.8125 46.0002C31.1875 44.3127 8.125 35.0002 3.9375 33.0002C1.875 32.0002 0.75 31.1877 0.75 30.3752V22.4377C0.75 22.4377 30.75 15.8752 35.625 14.1877C40.5 12.4377 42.125 12.3752 46.25 13.8752C50.375 15.3752 75.0625 19.8127 79.125 21.3127V29.1252C79.1875 29.9377 78.25 30.7502 76.125 31.8752Z" fill="#A41E11"/>
<path d="M76.1252 23.9377C71.9377 26.1252 50.2502 35.0002 45.6252 37.4377C41.0002 39.8127 38.4377 39.8127 34.8127 38.0627C31.1877 36.3127 8.12522 27.0627 3.93772 25.0627C-0.249778 23.0627 -0.312278 21.6877 3.75022 20.1252C7.81272 18.5002 30.7502 9.50015 35.6252 7.81265C40.5002 6.06265 42.1252 6.00015 46.2502 7.50015C50.3752 9.00015 71.9377 17.5627 76.0002 19.0627C80.1877 20.5627 80.3127 21.8127 76.1252 23.9377Z" fill="#D82C20"/>
<path d="M50.25 16.3125L43.5 17.0625L41.9375 20.6875L39.5 16.625L31.6875 15.9375L37.5 13.8125L35.75 10.5625L41.25 12.6875L46.375 11L45 14.375L50.25 16.3125ZM41.5625 34.0625L28.875 28.8125L47.0625 26.0625L41.5625 34.0625Z" fill="white"/>
<path d="M24 25.875C29.3503 25.875 33.6875 24.1961 33.6875 22.125C33.6875 20.0539 29.3503 18.375 24 18.375C18.6497 18.375 14.3125 20.0539 14.3125 22.125C14.3125 24.1961 18.6497 25.875 24 25.875Z" fill="white"/>
<path d="M58.3125 17.3125L69.0625 21.5625L58.3125 25.8125V17.3125Z" fill="#7A0C00"/>
<path d="M46.4375 22.0625L58.3125 17.3125V25.8125L57.125 26.3125L46.4375 22.0625Z" fill="#AD2115"/>
</svg>
