<svg width="296" height="296" viewBox="0 0 296 296" fill="none" xmlns="http://www.w3.org/2000/svg">
<path d="M198.445 175.568C199.903 163.424 199.467 161.642 208.511 163.608L210.808 163.812C217.763 164.128 226.863 162.692 232.206 160.209C243.713 154.871 250.534 145.954 239.189 148.296C213.307 153.634 211.528 144.874 211.528 144.874C238.859 104.323 250.285 52.8492 240.424 40.2485C213.529 5.88041 166.971 22.1321 166.191 22.5544L165.941 22.6029C160.827 21.539 155.106 20.9066 148.677 20.8028C136.964 20.6112 128.077 23.8745 121.336 28.9863C121.336 28.9863 38.2796 -5.23175 42.1429 72.0179C42.9645 88.4519 65.6988 196.368 92.8134 163.772C102.723 151.855 112.301 141.776 112.301 141.776C117.057 144.936 122.75 146.547 128.723 145.967L129.185 145.575C129.042 147.054 129.104 148.501 129.372 150.214C122.386 158.021 124.44 159.392 110.473 162.265C96.3444 165.178 104.646 170.361 110.062 171.716C116.635 173.361 131.832 175.69 142.104 161.31L141.695 162.951C144.437 165.143 144.25 178.706 144.638 188.397C145.026 198.087 145.676 207.129 147.652 212.465C149.627 217.796 151.958 231.53 170.312 227.597C185.65 224.306 197.376 219.575 198.445 175.568Z" fill="black"/>
<path d="M164.335 237.175C156.216 237.175 150.931 234.036 147.719 231.004C142.872 226.432 140.95 220.54 139.803 217.02L139.307 215.55C136.994 209.308 136.212 200.321 135.748 188.75C135.68 186.941 135.622 185.131 135.575 183.322C135.536 181.935 135.487 180.195 135.418 178.369C132.493 179.763 129.389 180.745 126.194 181.286C120.47 182.265 114.318 181.946 107.902 180.342C103.376 179.211 98.6731 176.867 95.9937 173.243C88.1817 180.086 80.7298 179.156 76.6703 177.804C69.5091 175.415 63.1003 168.706 57.0746 157.287C52.7844 149.157 48.6326 138.559 44.7347 125.795C37.9497 103.563 33.6387 80.1483 33.2556 72.4632C32.0509 48.3996 38.5266 31.1925 52.5028 21.3219C74.554 5.74644 107.96 14.9039 120.138 19.0626C128.319 14.1308 137.945 11.7283 148.824 11.9037C154.668 11.9983 160.23 12.513 165.397 13.4315C170.786 11.7375 181.434 9.3051 193.621 9.45511C216.077 9.72281 234.684 18.4741 247.431 34.7627C256.526 46.3848 252.03 70.7877 248.538 84.3023C243.63 103.307 235.024 123.526 224.454 141.126C227.325 141.146 231.481 140.8 237.394 139.582C249.058 137.172 252.466 143.426 253.392 146.226C257.1 157.458 240.98 165.944 235.951 168.277C229.508 171.27 219.005 173.091 210.402 172.696L210.025 172.671L207.766 172.473L207.542 174.356L207.328 176.2C206.751 198.503 203.563 212.626 197.007 221.962C190.137 231.744 180.585 234.488 172.173 236.291C169.599 236.864 166.972 237.161 164.335 237.175ZM147.253 155.999C152.494 160.193 152.953 168.083 153.361 182.83C153.412 184.669 153.461 186.412 153.525 188.039C153.724 192.964 154.188 204.498 155.992 209.372C156.249 210.06 156.477 210.762 156.717 211.5C158.729 217.667 159.74 220.757 168.443 218.892C175.752 217.327 179.507 215.922 182.447 211.736C186.721 205.648 189.112 193.409 189.55 175.348L198.44 175.565L189.61 174.506L189.869 172.302C190.716 165.037 191.325 159.784 196.183 156.313C200.079 153.528 204.521 153.798 208.059 154.435C204.173 151.501 203.097 148.054 202.811 146.641L202.07 142.99L204.152 139.898C216.153 122.091 226.051 100.206 231.308 79.8529C236.708 58.9394 235.061 47.8319 233.415 45.7317C211.615 17.874 173.806 29.3739 169.86 30.6824L169.191 31.0425L165.844 31.6679L164.13 31.3125C159.406 30.3316 154.158 29.7893 148.529 29.697C139.688 29.5493 132.556 31.6379 126.708 36.0758L122.651 39.1521L117.941 37.2113C107.884 33.0987 78.3342 24.8298 62.7426 35.8727C54.0883 42.0023 50.1465 54.0145 51.0235 71.5747C51.312 77.372 55.2537 99.317 61.7479 120.604C70.7277 150.02 78.8881 159.789 82.2945 160.927C82.8876 161.127 84.4315 159.927 85.9662 158.086C95.9498 146.078 105.444 136.069 105.843 135.647L110.992 130.23L117.216 134.366C119.725 136.034 122.492 136.978 125.335 137.156L140.182 124.495L138.031 146.443C137.982 146.937 137.959 147.606 138.153 148.852L138.799 153.013L136 156.147L135.677 156.509L143.832 160.276L147.253 155.999Z" fill="black"/>
<path d="M239.197 148.296C213.312 153.634 211.533 144.871 211.533 144.871C238.862 104.32 250.286 52.8445 240.427 40.2461C213.529 5.878 166.971 22.132 166.193 22.5543L165.942 22.5982C160.828 21.5389 155.106 20.9065 148.675 20.8027C136.962 20.6111 128.077 23.8721 121.336 28.9839C121.336 28.9839 38.2777 -5.23185 42.141 72.0178C42.9625 88.4518 65.6969 196.368 92.8115 163.772C102.721 151.855 112.296 141.776 112.296 141.776C117.053 144.936 122.746 146.547 128.717 145.967L129.18 145.575C129.037 147.054 129.102 148.501 129.365 150.214C122.382 158.021 124.431 159.392 110.469 162.265C96.3378 165.178 104.639 170.361 110.06 171.716C116.63 173.361 131.83 175.69 142.1 161.31L141.689 162.951C144.426 165.143 146.348 177.211 146.025 188.15C145.702 199.089 145.487 206.598 147.645 212.465C149.803 218.331 151.952 231.53 170.308 227.597C185.646 224.309 193.594 215.79 194.702 201.583C195.486 191.482 197.261 192.975 197.374 183.943L198.8 179.666C200.441 165.972 199.061 161.554 208.512 163.611L210.808 163.811C217.764 164.13 226.866 162.692 232.208 160.209C243.715 154.869 250.539 145.953 239.197 148.296Z" fill="#336791"/>
<path d="M165.263 231.691C149.96 231.694 145.113 219.575 143.129 214.62C140.228 207.36 139.6 179.177 140.246 156.064C140.289 155.292 140.632 154.568 141.201 154.045C141.769 153.522 142.52 153.241 143.293 153.263C144.065 153.284 144.799 153.607 145.337 154.161C145.876 154.715 146.177 155.457 146.177 156.23C145.432 182.888 146.491 207.044 148.637 212.416C151.991 220.798 157.075 228.13 171.455 225.052C185.106 222.123 190.217 216.947 192.493 203.751C194.242 193.622 197.695 164.808 198.119 159.122C198.178 158.338 198.545 157.609 199.141 157.095C199.737 156.582 200.513 156.326 201.297 156.385C202.082 156.443 202.811 156.811 203.324 157.407C203.837 158.003 204.093 158.778 204.034 159.563C203.591 165.48 200.153 194.24 198.336 204.759C195.648 220.348 188.699 227.42 172.696 230.851C170.255 231.39 167.763 231.672 165.263 231.691ZM82.2945 172.507C80.957 172.508 79.6285 172.288 78.362 171.859C68.4222 168.542 58.9555 152.355 50.2227 123.743C43.5762 101.962 39.3644 79.2298 38.9952 71.8424C37.8989 49.9412 43.5416 34.4442 55.7615 25.7853C79.9382 8.65432 120.611 24.9683 122.331 25.6699C123.052 25.9718 123.625 26.5466 123.925 27.2691C124.225 27.9915 124.227 28.8031 123.931 29.5272C123.635 30.2512 123.065 30.8291 122.345 31.1349C121.625 31.4408 120.814 31.4499 120.087 31.1602V31.1625C119.695 31.0009 80.6929 15.377 59.1794 30.634C48.7295 38.0444 43.9316 51.8083 44.917 71.5494C45.2286 77.7712 49.1634 99.9609 55.8953 122.014C63.6911 147.555 72.5647 163.675 80.2382 166.232C81.4406 166.636 85.1054 167.857 90.3488 161.557C100.208 149.694 109.266 140.228 109.356 140.133C109.908 139.599 110.645 139.299 111.413 139.297C112.181 139.295 112.92 139.59 113.474 140.121C114.029 140.653 114.356 141.378 114.387 142.146C114.417 142.913 114.15 143.662 113.639 144.236C113.549 144.329 104.63 153.655 94.909 165.348C90.3049 170.883 85.8901 172.507 82.2945 172.507ZM211.348 147.516C210.809 147.517 210.281 147.371 209.819 147.094C209.357 146.816 208.98 146.419 208.727 145.943C208.474 145.468 208.356 144.932 208.384 144.394C208.413 143.857 208.588 143.337 208.89 142.891C236.517 101.895 246.214 52.3621 237.909 41.7508C227.454 28.3931 212.691 21.4143 194.032 21.015C180.215 20.715 169.232 24.2436 167.439 24.8598L166.989 25.0422C165.184 25.6099 163.8 24.6198 163.278 23.4636C162.981 22.8011 162.936 22.0529 163.152 21.3597C163.368 20.6665 163.83 20.0761 164.451 19.6995L165.249 19.3718L165.21 19.3834L165.251 19.3695C168.3 18.2548 179.449 14.9085 193.261 15.0678C213.909 15.2847 230.964 23.249 242.582 38.0929C248.079 45.1179 248.091 61.3026 242.616 82.4953C237.036 104.101 226.536 127.325 213.81 146.207C213.539 146.611 213.173 146.942 212.743 147.17C212.314 147.399 211.834 147.517 211.348 147.516ZM212.758 166.493C208.041 166.493 203.813 165.831 201.281 164.312C198.678 162.754 198.182 160.634 198.117 159.51C197.406 147.038 204.288 144.867 207.798 143.876C207.309 143.138 206.612 142.268 205.894 141.37C203.847 138.813 201.046 135.31 198.886 130.071C198.549 129.254 197.487 127.35 196.259 125.148C189.606 113.219 175.764 88.3941 184.656 75.6803C188.773 69.7977 196.965 67.483 209.04 68.7754C205.488 57.954 188.572 24.1006 148.439 23.4428C136.367 23.2397 126.466 26.953 119.028 34.4627C102.373 51.2844 102.977 81.7199 102.984 82.0222C102.994 82.4115 102.928 82.799 102.788 83.1626C102.648 83.5261 102.439 83.8586 102.171 84.141C101.902 84.4235 101.581 84.6504 101.226 84.8087C100.87 84.9671 100.486 85.0538 100.097 85.0639C99.7077 85.0741 99.3203 85.0075 98.9567 84.8679C98.5932 84.7283 98.2607 84.5185 97.9782 84.2504C97.6958 83.9823 97.4689 83.6612 97.3105 83.3054C97.1522 82.9496 97.0655 82.5662 97.0553 82.1769C97.0184 80.8268 96.3953 48.8889 114.814 30.2878C123.434 21.5827 134.779 17.2856 148.536 17.5094C174.217 17.9318 190.744 30.9848 200.088 41.8639C210.27 53.7168 215.264 66.7929 215.675 71.1547C215.982 74.3995 213.653 75.0503 213.183 75.1449L212.114 75.1703C200.263 73.2733 192.661 74.5887 189.518 79.0821C182.754 88.7472 195.848 112.229 201.44 122.259C202.869 124.816 203.898 126.665 204.369 127.807C206.206 132.261 208.602 135.254 210.526 137.659C212.218 139.775 213.686 141.608 214.212 143.763C214.454 144.19 217.911 149.3 238.416 145.067C243.556 144.008 246.637 144.915 247.578 147.763C249.431 153.369 239.035 159.904 233.279 162.579C228.114 164.977 219.882 166.493 212.758 166.493ZM204.032 159.02C204.681 159.678 207.935 160.809 214.676 160.52C220.667 160.262 226.988 158.958 230.782 157.199C235.633 154.947 238.869 152.429 240.546 150.71L239.614 150.881C226.503 153.588 217.23 153.228 212.054 149.808C211.706 149.577 211.371 149.329 211.05 149.062C210.489 149.284 209.97 149.429 209.601 149.533C206.663 150.357 203.626 151.208 204.032 159.02ZM119.342 175.588C116.086 175.588 112.658 175.147 109.158 174.268C105.532 173.361 99.4162 170.631 99.5108 166.147C99.6147 161.114 106.933 159.604 109.691 159.037C119.642 156.987 120.29 156.166 123.401 152.217C124.308 151.065 125.437 149.632 126.974 147.913C129.259 145.358 131.756 144.061 134.396 144.061C136.233 144.061 137.742 144.686 138.737 145.097C141.912 146.413 144.562 149.593 145.651 153.401C146.634 156.835 146.166 160.14 144.331 162.706C138.312 171.136 129.672 175.588 119.342 175.588ZM105.917 166.403C106.813 167.093 108.604 168.016 110.595 168.517C113.628 169.274 116.568 169.659 119.342 169.659C127.793 169.659 134.576 166.158 139.505 159.26C140.532 157.82 140.225 155.995 139.951 155.032C139.374 153.02 137.943 151.19 136.468 150.576C135.667 150.244 135.005 149.99 134.396 149.99C134.068 149.99 133.073 149.99 131.396 151.866C129.979 153.449 128.961 154.742 128.059 155.884C124.186 160.802 122.411 162.471 110.886 164.845C108.075 165.427 106.633 166.013 105.917 166.403ZM128.723 152.722C128.015 152.721 127.331 152.467 126.794 152.006C126.257 151.545 125.902 150.906 125.795 150.207C125.719 149.714 125.669 149.218 125.647 148.721C118.091 148.577 110.803 145.337 105.271 139.563C98.2761 132.263 95.0914 122.151 96.5361 111.819C98.1054 100.598 97.5192 90.6927 97.203 85.3709C97.1245 84.2762 97.076 83.1796 97.0576 82.0822C97.0622 81.1453 97.0807 78.6551 105.4 74.4387C108.359 72.9387 114.292 70.3216 120.773 69.65C131.513 68.5423 138.591 73.3241 140.71 83.1185C146.429 109.566 141.162 121.264 137.318 129.806C136.6 131.393 135.924 132.898 135.384 134.352L134.906 135.638C132.875 141.084 131.119 145.79 131.659 149.307C131.777 150.084 131.583 150.877 131.118 151.511C130.653 152.146 129.955 152.569 129.178 152.69L128.723 152.722ZM103.007 82.9015L103.125 85.0201C103.453 90.5473 104.062 100.836 102.409 112.642C101.219 121.163 103.822 129.483 109.552 135.462C114.08 140.189 120.044 142.796 126.171 142.796H126.298C126.985 139.905 128.123 136.854 129.349 133.565L129.824 132.289C130.436 130.646 131.151 129.056 131.908 127.373C135.61 119.148 140.216 108.911 134.91 84.3716C133.858 79.5136 131.31 76.7004 127.122 75.7727C118.518 73.871 105.698 80.3421 103.007 82.9015ZM120.907 81.6438C120.759 82.6915 122.829 85.4909 125.525 85.8648C128.218 86.2409 130.523 84.0531 130.669 83.0054C130.814 81.9576 128.746 80.8014 126.048 80.4252C123.355 80.049 121.05 80.5937 120.907 81.6438ZM126.145 86.8987L125.388 86.8456C123.715 86.6125 122.024 85.5578 120.867 84.0231C120.461 83.4854 119.797 82.4377 119.928 81.5053C120.117 80.1368 121.784 79.3198 124.389 79.3198C124.975 79.3198 125.575 79.3621 126.189 79.4467C127.611 79.6452 128.933 80.056 129.909 80.6006C131.601 81.5468 131.726 82.5992 131.65 83.1461C131.44 84.6532 129.035 86.8987 126.145 86.8987ZM121.89 81.8192C121.975 82.4653 123.574 84.6001 125.661 84.8886L126.143 84.9232C128.068 84.9232 129.508 83.4069 129.676 82.9108C129.499 82.5738 128.262 81.7315 125.912 81.4084C125.407 81.3377 124.897 81.3007 124.387 81.2976C122.882 81.2953 122.077 81.6345 121.89 81.8192ZM202.943 79.5044C203.088 80.5545 201.023 83.3539 198.325 83.7277C195.629 84.1016 193.324 81.9161 193.176 80.866C193.033 79.8183 195.101 78.6621 197.796 78.2882C200.492 77.9097 202.795 78.459 202.943 79.5044ZM197.704 84.2631C195.108 84.2631 192.871 82.2438 192.687 80.9353C192.474 79.3636 195.062 78.1682 197.729 77.7989C198.319 77.7158 198.895 77.6743 199.458 77.6743C201.759 77.6743 203.282 78.3505 203.434 79.4375C203.534 80.1437 202.993 81.2307 202.061 82.2092C201.447 82.8554 200.155 83.9747 198.396 84.217L197.704 84.2631ZM199.456 78.6621C198.939 78.6621 198.408 78.6997 197.863 78.7751C195.182 79.1467 193.587 80.2244 193.663 80.8014C193.753 81.4337 195.463 83.2754 197.702 83.2754L198.253 83.2362C199.716 83.0308 200.815 82.0776 201.339 81.5261C202.16 80.6606 202.488 79.8483 202.449 79.569C202.4 79.2067 201.413 78.6621 199.456 78.6621ZM206.827 139.711C206.29 139.711 205.763 139.564 205.302 139.288C204.842 139.011 204.465 138.615 204.212 138.141C203.959 137.667 203.84 137.134 203.867 136.597C203.893 136.061 204.065 135.542 204.364 135.095C210.679 125.663 209.522 116.042 208.405 106.741C207.928 102.776 207.436 98.6801 207.565 94.7453C207.695 90.6996 208.207 87.3625 208.705 84.1316C209.294 80.3075 209.85 76.6912 209.619 72.4032C209.602 71.6326 209.886 70.8856 210.41 70.3203C210.934 69.755 211.657 69.4158 212.427 69.3744C213.197 69.333 213.952 69.5927 214.534 70.0986C215.116 70.6044 215.478 71.3167 215.543 72.0848C215.807 76.9866 215.176 81.076 214.567 85.034C214.096 88.0872 213.609 91.2443 213.492 94.9345C213.379 98.417 213.824 102.116 214.295 106.031C215.486 115.924 216.831 127.138 209.294 138.393C208.722 139.247 207.782 139.711 206.827 139.711Z" fill="white"/>
<path d="M6.54248 238.13C9.85573 237.59 13.2085 237.329 16.5653 237.35C21.7233 237.35 25.5058 238.55 27.906 240.71C30.1261 242.63 31.4462 245.57 31.4462 249.173C31.4462 252.833 30.3638 255.713 28.3237 257.813C25.5635 260.754 21.0633 262.254 15.963 262.254C14.4029 262.254 12.9628 262.194 11.7651 261.894V278.097H6.54248V238.13ZM11.7651 257.631C12.9051 257.931 14.3452 258.051 16.0853 258.051C22.3834 258.051 26.2259 254.991 26.2259 249.411C26.2259 244.07 22.4457 241.49 16.6854 241.49C14.4052 241.49 12.6651 241.67 11.7651 241.91V257.631ZM63.0679 263.331C63.0679 274.072 55.6252 278.755 48.6048 278.755C40.7444 278.755 34.684 272.994 34.684 263.811C34.684 254.091 41.0444 248.391 49.0848 248.391C57.4276 248.388 63.0679 254.451 63.0679 263.331ZM40.0266 263.631C40.0266 269.992 43.6869 274.792 48.8471 274.792C53.8874 274.792 57.6653 270.052 57.6653 263.511C57.6653 258.591 55.2075 252.351 48.9648 252.351C42.7222 252.351 40.0266 258.111 40.0266 263.631ZM69.0059 272.692C70.566 273.712 73.3262 274.792 75.9663 274.792C79.8065 274.792 81.6066 272.872 81.6066 270.472C81.6066 267.952 80.1089 266.572 76.2063 265.132C70.9861 263.271 68.5259 260.391 68.5259 256.911C68.5259 252.231 72.3061 248.391 78.5465 248.391C81.4866 248.391 84.0691 249.231 85.6892 250.191L84.3691 254.031C82.5831 252.931 80.5264 252.349 78.4288 252.351C75.3086 252.351 73.5685 254.151 73.5685 256.311C73.5685 258.711 75.3109 259.791 79.0911 261.231C84.1314 263.151 86.7115 265.672 86.7115 269.992C86.7115 275.092 82.7513 278.692 75.8509 278.692C72.6708 278.692 69.7306 277.912 67.6905 276.712L69.0059 272.692ZM99.85 240.708V249.048H107.408V253.069H99.85V268.729C99.85 272.33 100.868 274.37 103.81 274.37C104.842 274.387 105.871 274.266 106.87 274.01L107.11 277.97C106.093 278.39 104.47 278.69 102.432 278.69C99.9723 278.69 97.9899 277.91 96.7298 276.47C95.232 274.91 94.6897 272.33 94.6897 268.909V253.069H90.1894V249.048H94.6897V242.088L99.85 240.708ZM138.012 249.051C137.89 251.151 137.772 253.491 137.772 257.031V273.892C137.772 280.552 136.452 284.633 133.632 287.155C130.812 289.795 126.731 290.635 123.071 290.635C119.591 290.635 115.751 289.795 113.408 288.235L114.728 284.215C116.649 285.415 119.649 286.495 123.249 286.495C128.649 286.495 132.609 283.675 132.609 276.355V273.114H132.489C130.869 275.814 127.749 277.975 123.249 277.975C116.049 277.975 110.888 271.854 110.888 263.811C110.888 253.971 117.309 248.391 123.969 248.391C129.012 248.391 131.772 251.031 133.032 253.431H133.152L133.392 249.051H138.012ZM132.552 260.511C132.552 259.611 132.492 258.831 132.252 258.111C131.292 255.051 128.712 252.531 124.871 252.531C119.829 252.531 116.231 256.791 116.231 263.511C116.231 269.212 119.111 273.952 124.811 273.952C128.052 273.952 130.992 271.912 132.132 268.552C132.432 267.652 132.554 266.632 132.554 265.732L132.552 260.511ZM146.17 258.111C146.17 254.691 146.11 251.751 145.93 249.051H150.553L150.73 254.751H150.97C152.291 250.851 155.471 248.391 159.011 248.391C159.611 248.391 160.029 248.451 160.509 248.571V253.551C159.918 253.422 159.315 253.362 158.711 253.371C154.991 253.371 152.348 256.191 151.631 260.151C151.482 260.963 151.402 261.786 151.391 262.611V278.092H146.17V258.111ZM168.134 264.532C168.254 271.672 172.812 274.612 178.092 274.612C181.875 274.612 184.152 273.952 186.132 273.112L187.032 276.892C185.172 277.732 181.992 278.692 177.372 278.692C168.431 278.692 163.091 272.812 163.091 264.052C163.091 255.291 168.251 248.388 176.712 248.388C186.192 248.388 188.713 256.729 188.713 262.069C188.713 263.149 188.593 263.989 188.533 264.529L168.134 264.532ZM183.615 260.751C183.672 257.391 182.232 252.171 176.294 252.171C170.954 252.171 168.614 257.091 168.191 260.751H183.615Z" fill="black"/>
<path d="M194.713 271.732C197.541 273.433 200.773 274.344 204.074 274.372C209.414 274.372 212.534 271.552 212.534 267.472C212.534 263.691 210.374 261.531 204.914 259.431C198.313 257.091 194.233 253.671 194.233 247.971C194.233 241.67 199.453 236.99 207.314 236.99C211.454 236.99 214.454 237.95 216.254 238.97L214.814 243.23C212.453 241.963 209.813 241.303 207.134 241.31C201.613 241.31 199.513 244.61 199.513 247.371C199.513 251.151 201.971 253.011 207.554 255.171C214.394 257.813 217.874 261.111 217.874 267.052C217.874 273.292 213.254 278.692 203.714 278.692C199.813 278.692 195.553 277.552 193.391 276.112L194.713 271.732ZM258.377 284.033C253.16 282.663 247.997 281.102 242.896 279.352C242.056 279.052 241.216 278.752 240.436 278.752C230.835 278.392 222.615 271.312 222.615 258.291C222.615 245.33 230.535 236.99 241.456 236.99C252.436 236.99 259.579 245.51 259.579 257.451C259.579 267.832 254.779 274.492 248.058 276.832V277.072C252.079 278.092 256.459 279.052 259.879 279.652L258.377 284.033ZM254.056 257.691C254.056 249.591 249.858 241.248 241.276 241.248C232.455 241.248 228.135 249.408 228.195 258.171C228.135 266.752 232.875 274.492 241.036 274.492C249.378 274.492 254.056 266.932 254.056 257.691ZM266.355 237.65H271.577V273.712H288.858V278.092H266.355V237.65Z" fill="#336791"/>
</svg>
