<svg width="178" height="266" viewBox="0 0 178 266" fill="none" xmlns="http://www.w3.org/2000/svg">
<path d="M44.3102 265.861C68.7694 265.861 88.6203 246.01 88.6203 221.551V177.241H44.3102C19.851 177.241 0 197.092 0 221.551C0 246.01 19.851 265.861 44.3102 265.861Z" fill="#0ACF83"/>
<path d="M0 132.931C0 108.471 19.851 88.6204 44.3102 88.6204H88.6203V177.241H44.3102C19.851 177.241 0 157.39 0 132.931Z" fill="#A259FF"/>
<path d="M0 44.3102C0 19.851 19.851 0 44.3102 0H88.6203V88.6203H44.3102C19.851 88.6203 0 68.7694 0 44.3102Z" fill="#F24E1E"/>
<path d="M88.6204 0H132.931C157.39 0 177.241 19.851 177.241 44.3102C177.241 68.7694 157.39 88.6203 132.931 88.6203H88.6204V0Z" fill="#FF7262"/>
<path d="M177.241 132.931C177.241 157.39 157.39 177.241 132.931 177.241C108.471 177.241 88.6204 157.39 88.6204 132.931C88.6204 108.471 108.471 88.6204 132.931 88.6204C157.39 88.6204 177.241 108.471 177.241 132.931Z" fill="#1ABCFE"/>
</svg>
