<svg width="128" height="173" viewBox="0 0 128 173" fill="none" xmlns="http://www.w3.org/2000/svg">
<path d="M41.277 133.736C41.277 133.736 34.678 137.574 45.9735 138.872C59.658 140.433 66.6515 140.21 81.732 137.355C81.732 137.355 85.697 139.841 91.2335 141.995C57.428 156.483 14.724 141.155 41.277 133.736ZM37.146 114.829C37.146 114.829 29.7445 120.308 41.0485 121.477C55.6665 122.985 67.2105 123.109 87.1865 119.262C87.1865 119.262 89.9495 122.063 94.294 123.595C53.4205 135.547 7.89504 124.538 37.146 114.829Z" fill="#5382A1"/>
<path d="M71.9711 82.7575C80.3011 92.3475 69.7826 100.978 69.7826 100.978C69.7826 100.978 90.933 90.059 81.2195 76.386C72.1475 63.636 65.19 57.3 102.854 35.457C102.854 35.457 43.7346 50.2225 71.9711 82.7575Z" fill="#E76F00"/>
<path d="M116.682 147.721C116.682 147.721 121.566 151.744 111.304 154.857C91.7905 160.769 30.0875 162.554 12.9465 155.093C6.78503 152.413 18.34 148.693 21.9745 147.912C25.765 147.09 27.9315 147.243 27.9315 147.243C21.079 142.416 -16.36 156.722 8.91453 160.818C77.841 171.996 134.561 155.785 116.682 147.721ZM44.45 95.2396C44.45 95.2396 13.0645 102.695 33.336 105.401C41.895 106.547 58.9575 106.288 74.851 104.956C87.84 103.861 100.883 101.531 100.883 101.531C100.883 101.531 96.3025 103.493 92.989 105.755C61.117 114.138 -0.453976 110.238 17.2715 101.664C32.262 94.4176 44.45 95.2396 44.45 95.2396ZM100.753 126.711C133.153 109.875 118.173 93.6956 107.717 95.8756C105.154 96.4086 104.011 96.8706 104.011 96.8706C104.011 96.8706 104.963 95.3806 106.78 94.7356C127.465 87.4631 143.373 116.184 100.102 127.559C100.102 127.56 100.604 127.112 100.753 126.711Z" fill="#5382A1"/>
<path d="M81.2195 0.18507C81.2195 0.18507 99.163 18.1351 64.201 45.7356C36.1655 67.8766 57.808 80.5006 64.1895 94.9241C47.8245 80.1591 35.8145 67.1611 43.872 55.0641C55.6975 37.3056 88.459 28.6966 81.2195 0.18507Z" fill="#E76F00"/>
<path d="M47.634 172.333C78.7335 174.324 126.49 171.228 127.621 156.513C127.621 156.513 125.447 162.092 101.919 166.522C75.375 171.517 42.637 170.934 23.2195 167.732C23.22 167.732 27.194 171.022 47.634 172.333Z" fill="#5382A1"/>
</svg>
