<svg width="296" height="296" viewBox="0 0 296 296" fill="none" xmlns="http://www.w3.org/2000/svg">
<path d="M0 0H295.401V295.401H0V0Z" fill="#F7DF1E"/>
<path d="M77.6721 246.858L100.277 233.177C104.639 240.91 108.606 247.452 118.122 247.452C127.244 247.452 132.996 243.885 132.996 230.005V135.618H160.756V230.398C160.756 259.15 143.902 272.237 119.312 272.237C97.1051 272.237 84.2147 260.736 77.6709 246.856M175.834 243.883L198.437 230.797C204.388 240.514 212.121 247.652 225.802 247.652C237.305 247.652 244.639 241.901 244.639 233.969C244.639 224.452 237.104 221.08 224.414 215.53L217.475 212.552C197.447 204.029 184.162 193.32 184.162 170.715C184.162 149.894 200.025 134.03 224.812 134.03C242.46 134.03 255.15 140.178 264.271 156.239L242.656 170.121C237.896 161.595 232.743 158.224 224.811 158.224C216.68 158.224 211.525 163.38 211.525 170.121C211.525 178.449 216.68 181.822 228.577 186.977L235.517 189.951C259.114 200.065 272.399 210.375 272.399 233.573C272.399 258.56 252.769 272.241 226.396 272.241C200.619 272.241 183.962 259.947 175.833 243.885" fill="black"/>
</svg>
