<svg width="296" height="208" viewBox="0 0 296 208" fill="none" xmlns="http://www.w3.org/2000/svg">
<path d="M288.92 32.4008C287.225 26.1383 283.92 20.4289 279.332 15.8412C274.745 11.2536 269.035 7.94771 262.773 6.25281C239.846 0 147.573 0 147.573 0C147.573 0 55.2946 0.189269 32.3676 6.44208C26.105 8.13708 20.3956 11.4431 15.8082 16.031C11.2207 20.6189 7.91516 26.3285 6.22072 32.5913C-0.714154 73.328 -3.40432 135.401 6.41114 174.509C8.10576 180.771 11.4114 186.481 15.9988 191.068C20.5863 195.656 26.2955 198.962 32.558 200.657C55.485 206.909 147.761 206.909 147.761 206.909C147.761 206.909 240.035 206.909 262.961 200.657C269.224 198.962 274.933 195.656 279.521 191.068C284.109 186.481 287.414 180.771 289.109 174.509C296.424 133.714 298.678 71.6788 288.92 32.4008Z" fill="#FF0000"/>
<path d="M118.202 147.792L194.75 103.454L118.202 59.1167V147.792Z" fill="white"/>
</svg>
