<svg width="296" height="296" viewBox="0 0 296 296" fill="none" xmlns="http://www.w3.org/2000/svg">
<path d="M226.166 0H69.2346C30.9974 0 0 30.9974 0 69.2346V226.166C0 264.404 30.9974 295.401 69.2346 295.401H226.166C264.404 295.401 295.401 264.404 295.401 226.166V69.2346C295.401 30.9974 264.404 0 226.166 0Z" fill="#00005B"/>
<path d="M62.311 210.796V84.0198C62.311 83.159 62.6803 82.6662 63.5423 82.6662C65.6343 82.6662 67.604 82.6662 70.4346 82.5428C73.3886 82.4205 76.4661 82.4205 79.7893 82.297C83.1126 82.1735 86.6816 82.1735 90.4976 82.0512C94.3124 81.9277 98.0049 81.9277 101.697 81.9277C111.791 81.9277 120.16 83.159 127.053 85.7437C133.232 87.8421 138.866 91.2895 143.546 95.8358C147.512 99.8157 150.576 104.601 152.532 109.867C154.378 115.037 155.362 120.33 155.362 125.869C155.362 136.454 152.901 145.193 147.977 152.085C143.054 158.978 136.161 164.147 128.161 167.101C119.791 170.179 110.559 171.287 100.467 171.287C97.5134 171.287 95.5437 171.287 94.3124 171.163C93.0824 171.041 91.3584 171.041 89.0206 171.041V210.551C89.1429 211.411 88.5279 212.15 87.6659 212.273H63.788C62.8038 212.273 62.311 211.781 62.311 210.673V210.796ZM89.1429 106.544V147.9C90.8669 148.024 92.4662 148.147 93.9432 148.147H100.467C105.268 148.147 110.068 147.409 114.621 145.932C118.561 144.824 122.006 142.485 124.715 139.407C127.299 136.331 128.53 132.146 128.53 126.731C128.646 122.884 127.664 119.084 125.699 115.775C123.607 112.576 120.653 110.114 117.084 108.76C112.529 106.913 107.605 106.175 102.559 106.298C99.3596 106.298 96.5279 106.298 94.1901 106.422C91.7277 106.298 90.0049 106.422 89.1429 106.544ZM173.086 113.807H194.626C195.858 113.807 196.842 114.668 197.211 115.775C197.58 116.761 197.826 117.745 197.95 118.853C198.196 120.084 198.442 121.438 198.565 122.669C198.688 124.022 198.812 125.499 198.812 127.1C202.507 122.785 206.973 119.195 211.981 116.514C217.644 113.314 224.167 111.714 230.69 111.714C231.552 111.591 232.29 112.206 232.414 113.068V137.561C232.414 138.547 231.797 138.916 230.444 138.916C226.013 138.792 221.458 139.162 217.151 140.146C213.581 140.884 210.135 141.992 206.812 143.469C204.473 144.577 202.257 146.054 200.534 148.024V210.796C200.534 212.028 200.042 212.519 198.934 212.519H174.687C173.703 212.643 172.841 212.028 172.717 211.042V142.361C172.717 139.407 172.717 136.331 172.595 133.13C172.471 129.93 172.471 126.731 172.348 123.53C172.348 120.699 172.102 117.991 171.856 115.16C171.733 114.545 172.102 113.929 172.717 113.807C172.717 113.683 172.964 113.683 173.086 113.807Z" fill="#9999FF"/>
</svg>
