<svg width="296" height="296" viewBox="0 0 296 296" fill="none" xmlns="http://www.w3.org/2000/svg">
<path d="M226.166 0H69.2346C30.9974 0 0 30.9974 0 69.2346V226.166C0 264.404 30.9974 295.401 69.2346 295.401H226.166C264.404 295.401 295.401 264.404 295.401 226.166V69.2346C295.401 30.9974 264.404 0 226.166 0Z" fill="#0277BD"/>
<path d="M62.0261 118.45L65.3286 155.308H147.811V118.45H62.0261ZM147.81 43.8486H55.3877L58.7387 80.7068H147.81V43.8486ZM147.81 252.523V214.175L147.649 214.218L106.599 203.134L103.975 173.737H66.9753L72.139 231.611L147.641 252.57L147.81 252.523Z" fill="#EBEBEB"/>
<path d="M193.07 155.308L188.791 203.11L147.683 214.206V252.552L223.245 231.611L223.798 225.383L232.46 128.348L233.359 118.45L240.013 43.8486H147.683V80.7068H199.619L196.266 118.45H147.683V155.308H193.07Z" fill="white"/>
</svg>
