<svg width="296" height="296" viewBox="0 0 296 296" fill="none" xmlns="http://www.w3.org/2000/svg">
<path d="M226.166 0H69.2346C30.9974 0 0 30.9974 0 69.2346V226.166C0 264.404 30.9974 295.401 69.2346 295.401H226.166C264.404 295.401 295.401 264.404 295.401 226.166V69.2346C295.401 30.9974 264.404 0 226.166 0Z" fill="#00979C"/>
<path fill-rule="evenodd" clip-rule="evenodd" d="M21.9243 157.523V138.579C22.3213 138.382 22.3213 137.987 22.3213 137.592C28.2789 111.742 44.564 96.153 70.3816 90.035C72.566 89.443 74.9488 89.6403 77.1343 88.8511H89.8435C90.0419 89.2457 90.6385 89.0484 91.0355 89.0484C103.746 90.4296 115.264 94.968 125.392 102.862C134.131 109.373 140.883 117.662 147.039 126.541C147.833 127.725 148.231 127.725 149.025 126.541C152.6 121.411 156.373 116.478 160.742 111.94C171.268 100.691 183.978 92.7974 199.468 90.035C201.653 89.443 204.234 89.6403 206.42 88.8511H218.732C218.93 89.2457 219.328 89.0484 219.725 89.0484C223.499 89.443 227.073 90.2323 230.648 91.2189C257.26 98.9155 276.126 123.187 274.537 150.616C273.345 173.705 261.628 190.281 241.173 200.739C231.045 206.265 219.924 207.646 208.405 207.449C193.312 207.252 180.205 202.12 168.885 192.254C160.94 185.347 154.784 177.059 149.025 168.376C148.231 167.192 147.833 167.39 147.039 168.574C143.465 173.902 139.691 179.23 135.323 184.36C127.577 193.043 118.64 200.147 107.519 203.897C93.8152 208.633 79.9141 208.83 66.0129 205.081C45.9545 199.358 32.2518 186.728 24.7052 167.39C23.5133 164.233 22.9167 160.681 21.9243 157.523ZM85.0778 186.531C96.3977 186.925 106.129 183.176 114.469 175.481C123.009 167.587 129.165 157.72 135.323 148.051C135.521 147.459 135.521 147.065 135.124 146.473C129.96 138.382 124.598 130.291 117.448 123.581C103.746 110.557 87.6591 106.216 69.5877 111.939C54.6931 116.873 45.1595 127.331 42.9751 143.117C40.7907 157.917 46.5499 169.757 58.4652 178.638C66.4099 184.36 75.3469 186.728 85.0778 186.531ZM210.987 186.531C215.355 186.531 219.725 186.333 223.896 185.149C239.584 180.414 249.912 170.744 252.891 154.563C255.869 138.579 249.713 125.752 236.209 116.675C221.314 106.414 199.667 107.4 184.574 118.648C174.446 126.147 167.693 136.211 160.941 146.67C160.544 147.262 160.742 147.657 160.941 148.249C166.303 156.733 171.665 165.219 178.616 172.52C187.354 181.795 197.879 187.123 210.987 186.531Z" fill="white"/>
<path fill-rule="evenodd" clip-rule="evenodd" d="M84.8793 141.736C91.2339 141.736 97.7881 141.933 104.143 141.736C105.732 141.736 105.93 142.131 105.93 143.709C105.731 145.48 105.731 147.267 105.93 149.038C106.129 150.616 105.732 151.011 103.944 151.011H78.5236C74.1549 151.011 69.7862 150.814 65.4163 151.011C64.0259 151.011 63.6289 150.616 63.6289 149.038C63.8274 147.262 63.8274 145.486 63.6289 143.512C63.6289 142.131 64.0259 141.736 65.4175 141.736C71.7721 141.933 78.3251 141.736 84.8793 141.736ZM209.994 129.106C211.582 129.106 213.171 129.304 214.562 129.106C215.555 129.106 215.952 129.501 215.952 130.488C215.754 133.251 215.952 136.014 215.754 138.776C215.754 140.157 216.15 140.552 217.541 140.552C220.122 140.355 222.903 140.552 225.683 140.355C226.875 140.355 227.272 140.552 227.272 141.933V151.011C227.272 151.998 226.875 152.392 225.881 152.392C223.102 152.195 220.321 152.392 217.342 152.195C216.15 152.195 215.754 152.59 215.754 153.774C215.952 156.536 215.754 159.299 215.952 162.062C215.952 163.246 215.555 163.838 214.363 163.838C211.387 163.641 208.402 163.641 205.426 163.838C204.235 163.838 203.837 163.443 203.837 162.259C204.036 159.299 203.837 156.536 204.036 153.576C204.036 152.59 203.639 152.195 202.646 152.195C199.865 152.392 197.086 152.195 194.305 152.392C192.716 152.392 192.517 151.8 192.517 150.616C192.517 147.854 192.716 145.09 192.517 142.328C192.319 140.749 193.114 140.355 194.503 140.355C197.284 140.552 199.865 140.355 202.646 140.552C203.639 140.552 204.036 140.157 204.036 139.171C203.837 136.408 204.036 133.449 203.837 130.686C203.837 129.501 204.235 129.106 205.426 129.106C207.015 129.304 208.405 129.106 209.994 129.106Z" fill="white"/>
</svg>
