<svg width="296" height="296" viewBox="0 0 296 296" fill="none" xmlns="http://www.w3.org/2000/svg">
<path d="M226.166 0H69.2346C30.9974 0 0 30.9974 0 69.2346V226.166C0 264.404 30.9974 295.401 69.2346 295.401H226.166C264.404 295.401 295.401 264.404 295.401 226.166V69.2346C295.401 30.9974 264.404 0 226.166 0Z" fill="#F03C2E"/>
<mask id="mask0_36_174" style="mask-type:luminance" maskUnits="userSpaceOnUse" x="32" y="32" width="232" height="232">
<path d="M32.3096 32.3096H263.092V263.092H32.3096V32.3096Z" fill="white"/>
</mask>
<g mask="url(#mask0_36_174)">
<path d="M258.735 137.424L157.977 36.6655C155.9 34.5858 153.252 33.1694 150.369 32.5957C147.486 32.0219 144.497 32.3167 141.782 33.4426C139.98 34.1906 138.342 35.2857 136.962 36.6655L116.047 57.5801L142.587 84.1201C148.761 81.9565 155.829 83.4346 160.747 88.3538C163.088 90.6991 164.723 93.6559 165.464 96.8861C166.204 100.116 166.022 103.49 164.936 106.621L190.517 132.202C196.706 130.068 203.845 131.444 208.785 136.399C211.26 138.872 212.945 142.024 213.627 145.456C214.309 148.888 213.958 152.445 212.617 155.676C210.82 160.009 207.376 163.451 203.042 165.246C198.708 167.04 193.839 167.04 189.505 165.246C187.359 164.356 185.409 163.053 183.767 161.41C178.574 156.218 177.291 148.573 179.916 142.176L156.059 118.319V181.099C157.791 181.956 159.374 183.086 160.747 184.446C164.063 187.762 165.926 192.261 165.926 196.951C165.926 201.642 164.063 206.14 160.747 209.457C157.43 212.773 152.931 214.637 148.241 214.637C143.551 214.637 139.052 212.773 135.735 209.457C133.26 206.984 131.574 203.833 130.891 200.402C130.208 196.97 130.558 193.414 131.898 190.182C132.787 188.036 134.091 186.087 135.735 184.446C137.444 182.744 139.341 181.452 141.527 180.587V117.222C139.358 116.336 137.389 115.025 135.735 113.365C133.252 110.884 131.564 107.72 130.886 104.277C130.208 100.833 130.57 97.2655 131.928 94.0287L105.749 67.8661L36.6585 136.884C34.5785 138.962 33.1619 141.611 32.5878 144.495C32.0137 147.379 32.3079 150.368 33.4333 153.085C34.1817 154.888 35.2775 156.527 36.6585 157.907L137.424 258.657C138.804 260.037 140.441 261.132 142.244 261.88C145.886 263.386 149.977 263.386 153.619 261.88C155.421 261.132 157.059 260.037 158.439 258.657L258.735 158.52C260.116 157.14 261.212 155.501 261.96 153.698C262.707 151.894 263.092 149.961 263.093 148.009C263.092 146.056 262.708 144.123 261.96 142.319C261.212 140.515 260.117 138.877 258.735 137.496" fill="white"/>
</g>
</svg>
